<?xml version="1.0" encoding="UTF-8"?>
<svg width="24px" height="24px" viewBox="0 0 24 24" version="1.1" xmlns="http://www.w3.org/2000/svg" xmlns:xlink="http://www.w3.org/1999/xlink">
    <!-- Generator: Sketch 60 (88103) - https://sketch.com -->
    <title>个人群组文档库</title>
    <desc>Created with Sketch.</desc>
    <defs>
        <linearGradient x1="50%" y1="5.200195%" x2="50%" y2="95.3%" id="linearGradient-1">
            <stop stop-color="#71C7FF" offset="0%"></stop>
            <stop stop-color="#008FEC" offset="100%"></stop>
        </linearGradient>
    </defs>
    <g id="个人群组文档库" stroke="none" stroke-width="1" fill="none" fill-rule="evenodd">
        <g id="群组文档库" transform="translate(0.500000, 2.000000)" fill-rule="nonzero">
            <g id="个人文档库_1_" fill="url(#linearGradient-1)">
                <path d="M0.958333333,0 L10.0265625,0 C10.2421875,0 10.4578125,0.071875 10.6255208,0.215625 L13.871875,2.82708333 C14.0395833,2.95885417 14.2552083,3.04270833 14.4708333,3.04270833 L22.0416667,3.04270833 C22.56875,3.04270833 23,3.47395833 23,4.00104167 L23,19.1666667 C23,19.69375 22.56875,20.125 22.0416667,20.125 L0.958333333,20.125 C0.43125,20.125 0,19.69375 0,19.1666667 L0,0.958333333 C0,0.43125 0.43125,0 0.958333333,0 Z" id="Combined-Shape_1_"></path>
            </g>
            <g id="编组" transform="translate(4.791667, 6.468750)" fill="#FFFFFF" opacity="0.8">
                <path d="M9.90677083,4.15677083 C8.99635417,4.15677083 8.265625,3.42604167 8.265625,2.515625 C8.265625,1.60520833 8.99635417,0.874479167 9.90677083,0.874479167 C10.8171875,0.874479167 11.5479167,1.60520833 11.5479167,2.515625 C11.5479167,3.42604167 10.8052083,4.15677083 9.90677083,4.15677083" id="Fill-1_5_"></path>
                <path d="M12.50625,5.76197917 C11.5,5.43854167 10.4098958,5.33072917 9.33177083,5.41458333 C9.43958333,5.43854167 9.54739583,5.47447917 9.65520833,5.51041667 C10.4098958,5.75 11.0208333,6.49270833 10.9489583,7.1515625 L10.8052083,9.39166667 C10.8052083,9.42760417 10.7932292,9.47552083 10.78125,9.51145833 L13.2369792,9.51145833 C13.4765625,9.51145833 13.65625,9.34375 13.65625,9.17604167 L13.8,7.41510417 C13.8838542,6.74427083 13.2609375,6.0015625 12.50625,5.76197917 Z" id="路径"></path>
                <path d="M4.39635417,3.83333333 C3.33020833,3.83333333 2.4796875,2.9828125 2.4796875,1.91666667 C2.4796875,0.850520833 3.33020833,0 4.39635417,0 C5.4625,0 6.31302083,0.850520833 6.31302083,1.91666667 C6.31302083,2.9828125 5.43854167,3.83333333 4.39635417,3.83333333" id="Fill-1_3_"></path>
                <path d="M0.766666667,10.0625 C0.491145833,10.0625 0.275520833,9.87083333 0.2515625,9.6671875 L0.0838541667,7.61875 C0.0239583333,6.85208333 0.71875,5.98958333 1.59322917,5.7140625 C3.4859375,5.12708333 5.5703125,5.12708333 7.42708333,5.7140625 C8.3015625,5.98958333 9.0203125,6.85208333 8.93645833,7.61875 L8.76875,9.6671875 C8.76875,9.87083333 8.553125,10.0625 8.27760417,10.0625 L0.766666667,10.0625 L0.766666667,10.0625 Z" id="Fill-4_3_"></path>
            </g>
        </g>
    </g>
</svg>