<svg width="200" height="200" viewBox="0 0 200 200" fill="currentColor" xmlns="http://www.w3.org/2000/svg">
<path d="M143.239 6C147.375 6.00003 150.759 9.38378 150.759 13.5195V24.8047H182.72C189.018 24.8047 194 29.8804 194 36.084V182.721C194 188.925 188.924 194.001 182.72 194.001H17.2803C11.0763 194.001 6 188.925 6 182.721V36.084C6.0003 29.8804 11.0765 24.8047 17.2803 24.8047H49.2393V13.5195C49.2394 9.38403 52.6233 6.00045 56.7588 6C60.8947 6 64.2791 9.38376 64.2793 13.5195V24.8047H135.719V13.5195C135.719 9.38388 139.104 6.00019 143.239 6ZM21.04 178.961H178.96V39.8438H150.759V47.3594C150.759 51.4951 147.469 54.8789 143.239 54.8789C139.104 54.8787 135.719 51.495 135.719 47.3594V39.8438H64.2793V47.3594C64.2791 51.4951 60.9887 54.8789 56.7588 54.8789C52.6233 54.8785 49.2395 51.4948 49.2393 47.3594V39.8438H21.04V178.961ZM149.161 126.411C153.203 126.411 156.398 129.701 156.398 133.649V134.119C156.398 138.067 153.203 141.357 149.161 141.357H58.4512C54.4093 141.357 51.2129 138.067 51.2129 134.119V133.649C51.2129 129.608 54.5033 126.411 58.4512 126.411H149.161ZM148.879 92.4834C153.015 92.4834 156.399 95.8679 156.399 100.004C156.399 104.14 153.109 107.523 148.879 107.523H99.999C95.8632 107.523 92.4786 104.14 92.4785 100.004C92.4785 95.868 95.8632 92.4836 99.999 92.4834H148.879Z" fill="black"/>
</svg>
