<svg width="200" height="200" viewBox="0 0 200 200" fill="currentColor" xmlns="http://www.w3.org/2000/svg">
<path d="M99.9997 72.4451C96.4686 72.4451 92.9335 72.5096 89.4146 72.6373C98.9144 58.4241 109.048 46.2282 118.781 37.4048C131.011 26.3181 139.842 23.2939 143.168 25.2151C146.51 27.1453 148.302 36.3578 144.773 52.5908C144.029 56.0092 146.198 59.3828 149.615 60.1255C153.032 60.8701 156.406 58.7009 157.147 55.2827C162.994 28.3913 156.215 18.1226 149.5 14.2446C130.317 3.16718 97.9408 34.6909 73.7074 73.6409C69.7518 74.007 65.854 74.4579 62.042 74.9902C59.0229 67.038 56.7032 59.4341 55.1916 52.4351C51.7078 36.2977 53.5044 27.1361 56.832 25.2154C58.4585 24.2766 61.317 24.5816 64.8803 26.0766C69.5472 28.0341 75.1835 31.9399 81.1814 37.3716C83.7736 39.7186 87.7767 39.5203 90.1248 36.9274C92.472 34.3348 92.274 30.3286 89.6814 27.9821C69.4188 9.62817 57.1907 10.3816 50.5005 14.2451C43.8043 18.1126 37.0341 28.3413 42.8145 55.1104C44.3034 62.009 46.5079 69.4244 49.3382 77.1469C21.5746 82.7545 1 93.3239 1 108.564C1 116.32 6.50122 127.327 32.7066 135.708C33.348 135.914 33.9966 136.012 34.6362 136.012C37.3157 136.012 39.8057 134.295 40.6662 131.605C41.7313 128.273 39.8944 124.708 36.5629 123.643C20.745 118.583 13.6644 112.424 13.6644 108.564C13.6644 104.721 20.6978 98.5846 36.4106 93.5334C41.783 91.807 47.7321 90.3281 54.12 89.1131C55.6719 92.7094 57.3444 96.3468 59.1253 100.006C51.3859 115.9 45.7303 131.391 42.8147 144.901C37.0343 171.669 43.8045 181.898 50.5007 185.765C52.7346 187.057 55.5868 187.999 59.1517 187.999C66.2348 187.999 76.129 184.273 89.5636 172.136C92.1588 169.792 92.3625 165.786 90.0193 163.19C87.6743 160.594 83.6705 160.391 81.075 162.735C68.9193 173.717 60.1397 176.704 56.8322 174.795C55.2037 173.854 54.0385 171.222 53.5526 167.379C52.9143 162.347 53.4822 155.499 55.193 147.576C57.3805 137.442 61.2608 126.043 66.512 114.153C67.2381 115.457 67.9767 116.762 68.7293 118.064C81.4257 140.061 96.1807 159.212 110.276 171.992C123.791 184.244 133.733 188 140.846 188C144.41 188 147.264 187.057 149.5 185.765C152.612 183.968 156.693 180.158 158.452 172.221C159.593 167.078 159.666 160.708 158.67 153.291C156.77 139.136 151.18 121.89 142.503 103.415C141.016 100.249 137.244 98.8874 134.079 100.374C130.914 101.861 129.554 105.634 131.041 108.801C139.058 125.872 144.413 142.272 146.119 154.977C147.16 162.732 147.011 172.575 143.168 174.795C141.539 175.735 138.676 175.427 135.107 173.93C130.432 171.965 124.786 168.05 118.781 162.606C105.633 150.686 91.7533 132.619 79.6968 111.731C77.4398 107.82 75.3 103.903 73.2877 100.007C75.3 96.1088 77.44 92.1922 79.6968 88.281C80.1887 87.4279 80.6848 86.5814 81.1835 85.7393C87.2956 85.3274 93.5933 85.1138 99.9997 85.1138C124.112 85.1138 146.695 88.1049 163.589 93.535C179.302 98.5851 186.335 104.723 186.335 108.566C186.335 110.436 184.653 112.75 181.598 115.081C177.595 118.137 171.43 121.059 163.772 123.536C160.445 124.612 158.619 128.182 159.695 131.511C160.772 134.839 164.341 136.666 167.667 135.589C193.564 127.216 199 116.271 199 108.566C199 84.8521 149.196 72.4451 99.9997 72.4451Z" fill="black"/>
<path d="M12.7031 108.593C12.7031 107.419 13.2356 106.164 14.1939 104.898C15.1574 103.626 16.5905 102.289 18.4949 100.934C22.3055 98.2249 28.0813 95.3907 36.0044 92.8427L37.028 92.5184C42.1763 90.9145 47.8224 89.5334 53.8509 88.3863L54.4033 88.2805L54.6267 88.7978C56.1788 92.396 57.8521 96.0363 59.6339 99.6989L59.7827 100.006L59.6339 100.313C51.8889 116.225 46.2387 131.714 43.3291 145.2V145.201C40.4441 158.566 40.7099 167.721 42.4799 173.98C44.2434 180.215 47.5055 183.6 50.7028 185.447H50.7038L51.1112 185.675C53.1882 186.795 55.7987 187.594 59.0285 187.594L59.6799 187.583C66.4972 187.359 76.065 183.604 89.0619 171.858L89.2725 171.658C91.3179 169.613 91.4843 166.338 89.6575 164.095L89.4684 163.874C87.4417 161.63 84.0264 161.39 81.7098 163.279L81.4884 163.468C75.3585 169.008 70.0495 172.561 65.8233 174.487C63.711 175.45 61.8477 176.017 60.2735 176.212C58.8055 176.394 57.5311 176.259 56.5445 175.76L56.3516 175.655C55.3563 175.08 54.5753 174.035 53.9861 172.703C53.4672 171.529 53.0754 170.085 52.8185 168.421L52.7166 167.695C52.0623 162.535 52.6481 155.575 54.372 147.588L54.5836 146.626C56.8239 136.644 60.6534 125.505 65.7694 113.917L66.3385 112.625L67.0252 113.859C67.3884 114.512 67.7545 115.165 68.1242 115.818L69.2428 117.773L69.2437 117.774L70.4407 119.83C82.8744 140.992 97.149 159.352 110.778 171.714L112.033 172.837C124.886 184.179 134.301 187.595 140.97 187.595C144.413 187.595 147.155 186.685 149.297 185.447L149.864 185.102C152.746 183.261 156.33 179.588 157.942 172.313L158.14 171.351C159.007 166.793 159.075 161.287 158.323 154.938L158.15 153.564C156.316 139.897 151.025 123.297 142.801 105.456L141.996 103.725C140.669 100.899 137.303 99.683 134.479 101.01L134.48 101.011C131.746 102.296 130.521 105.496 131.653 108.265L131.77 108.531L132.517 110.139C140.162 126.728 145.283 142.626 146.953 155.069L147.048 155.811C147.506 159.55 147.684 163.704 147.313 167.261C147.115 169.156 146.758 170.912 146.186 172.354C145.653 173.698 144.906 174.836 143.862 175.524L143.648 175.656C142.653 176.231 141.357 176.385 139.91 176.229C138.453 176.073 136.772 175.596 134.942 174.827H134.941C130.447 172.939 125.13 169.316 119.497 164.349L118.366 163.337C105.523 151.69 92.0168 134.253 80.1691 114.081L79.0279 112.122C76.7589 108.188 74.6072 104.248 72.5838 100.329L72.4173 100.007L72.5838 99.6842C74.6073 95.7634 76.7591 91.8241 79.0279 87.8905L79.7724 86.6069C80.0216 86.1808 80.272 85.7564 80.5227 85.333L80.7107 85.0146L81.08 84.9901C87.2264 84.5757 93.559 84.361 100 84.361C124.233 84.361 146.961 87.3666 163.995 92.8437L165.455 93.3248C172.632 95.7452 177.932 98.395 181.504 100.935C183.409 102.29 184.843 103.627 185.806 104.9C186.764 106.165 187.297 107.42 187.297 108.594C187.297 109.738 186.788 110.932 185.936 112.103C185.187 113.134 184.142 114.191 182.842 115.241L182.269 115.69C178.421 118.629 172.672 121.416 165.61 123.81L164.18 124.284C161.212 125.244 159.583 128.43 160.542 131.4L160.639 131.676C161.703 134.471 164.781 135.972 167.654 135.041L168.851 134.647C181.06 130.561 188.459 125.916 192.82 121.412C197.305 116.779 198.595 112.275 198.595 108.594C198.595 102.922 195.626 97.8636 190.274 93.4346C184.914 89 177.22 85.2473 167.935 82.218C149.371 76.1616 124.625 73.0544 100 73.0543C96.467 73.0543 92.9296 73.1185 89.4087 73.2464L88.0364 73.2964L88.7994 72.1538C98.3499 57.8595 108.55 45.5739 118.366 36.6719L119.513 35.6469C125.196 30.6377 130.139 27.3703 134.124 25.5445C136.248 24.571 138.123 23.9971 139.706 23.7984C141.28 23.6007 142.632 23.7668 143.648 24.354L143.837 24.4696C144.771 25.081 145.53 26.1291 146.109 27.5082C146.729 28.9871 147.169 30.9084 147.386 33.2492C147.794 37.6395 147.426 43.5906 145.912 51.0642L145.594 52.579C144.951 55.5348 146.747 58.4534 149.631 59.2353L149.913 59.3039L150.199 59.3587C153.147 59.8464 155.992 57.9375 156.633 54.9826V54.9817L156.897 53.7353C159.534 40.9825 159.244 32.1621 157.533 26.0736C155.828 20.0074 152.707 16.6297 149.598 14.7405L149.297 14.5622C144.709 11.9118 139.292 11.7781 133.29 13.7489C127.278 15.7232 120.735 19.796 113.99 25.4671C100.504 36.8066 86.3547 54.4185 74.2245 73.9225L74.0403 74.2184L73.6926 74.2507C69.7357 74.6172 65.8371 75.0685 62.0248 75.601L61.4704 75.6784L61.2716 75.1542C58.4235 67.6496 56.1903 60.4452 54.6658 53.7539L54.371 52.4222C52.6143 44.2819 52.1789 37.8593 52.6187 33.2022C52.8385 30.8745 53.2793 28.9636 53.8989 27.4925C54.5151 26.0295 55.3351 24.9409 56.3516 24.354L56.5406 24.2511C57.5071 23.7616 58.7288 23.6348 60.0844 23.7798C61.5397 23.9354 63.2185 24.4108 65.0466 25.178L65.4971 25.3721C70.1886 27.4357 75.741 31.3341 81.5962 36.6386L81.8166 36.8287C84.1302 38.7201 87.5447 38.484 89.5742 36.2427L89.7642 36.0222C91.5948 33.7815 91.4327 30.5071 89.3901 28.4596L89.1795 28.2587C79.0663 19.0948 71.0186 14.7581 64.7243 13.1678C58.6493 11.633 54.1838 12.649 51.0064 14.3917L50.7028 14.5631C47.5055 16.4105 44.2434 19.7953 42.4799 26.0305C40.7099 32.2889 40.4441 41.4444 43.3291 54.8102L43.6161 56.1065C45.0922 62.6218 47.1919 69.5867 49.8447 76.8278L50.1268 77.596L49.3246 77.7577C35.4395 80.5632 23.4082 84.6002 14.8668 89.8061C6.3134 95.0195 1.4046 101.308 1.4046 108.593C1.40461 112.298 2.71003 116.829 7.24927 121.485C11.8054 126.158 19.6383 130.975 32.7182 135.16L32.9337 135.224C33.4363 135.364 33.9411 135.431 34.4392 135.431C36.8299 135.431 39.0511 133.897 39.8186 131.497L39.9009 131.218C40.6411 128.42 39.1401 125.507 36.4334 124.488L36.1582 124.392C28.1824 121.839 22.3688 118.997 18.5331 116.279C16.616 114.921 15.1735 113.579 14.2037 112.302C13.2392 111.032 12.7031 109.772 12.7031 108.593ZM14.1067 108.593C14.1068 109.35 14.4584 110.316 15.3213 111.452C16.1789 112.582 17.5039 113.828 19.3451 115.133C23.0267 117.742 28.6967 120.529 36.5863 123.054L36.9291 123.174C40.309 124.447 42.1827 128.084 41.2585 131.577L41.1566 131.926C40.1978 134.924 37.4234 136.836 34.4392 136.836C33.8148 136.836 33.1833 136.752 32.5576 136.578L32.2902 136.498C19.0862 132.273 11.0181 127.363 6.24431 122.466C1.45369 117.552 1.256e-05 112.671 0 108.593C0 100.586 5.40955 93.9257 14.1361 88.6068C22.7079 83.3822 34.6202 79.3579 48.2491 76.5436C45.7104 69.5301 43.685 62.7696 42.2458 56.4172L41.9559 55.1061C39.0433 41.6127 39.2743 32.2067 41.1292 25.6484C42.9906 19.067 46.4814 15.3794 50.0005 13.3461L50.3345 13.158C53.8265 11.2438 58.6554 10.1856 65.0681 11.8058C71.6647 13.4724 79.9117 17.9654 90.1217 27.2171L90.3843 27.468C92.9354 30.0248 93.1376 34.1126 90.8525 36.91L90.6154 37.1853C88.0818 39.9839 83.8182 40.2789 80.9292 37.9173L80.6539 37.6802C74.853 32.4248 69.4295 28.6372 64.9349 26.6596L64.503 26.4734C62.7573 25.7408 61.2151 25.314 59.9355 25.1771C58.7271 25.0478 57.8112 25.1827 57.1763 25.5034L57.0529 25.57C56.4007 25.9466 55.7439 26.7298 55.1928 28.0383C54.6451 29.3386 54.2275 31.0994 54.0164 33.3344C53.5944 37.8034 54.0058 44.0738 55.7433 52.1254L56.0352 53.4413C57.5074 59.9033 59.6529 66.8658 62.3882 74.1332C65.9335 73.6464 69.5506 73.2283 73.2176 72.8838C85.3527 53.4238 99.5173 35.8006 113.086 24.3912C119.903 18.6591 126.605 14.466 132.852 12.4143C139.111 10.3592 144.967 10.4392 150 13.3461L150.331 13.5421C153.746 15.619 157.085 19.2917 158.885 25.6934C160.735 32.2786 160.951 41.7257 158.005 55.2805C157.179 59.0892 153.421 61.5065 149.615 60.6766V60.6757C145.809 59.8478 143.394 56.0897 144.221 52.2812L144.536 50.7829C146.031 43.3999 146.38 37.5934 145.988 33.3795C145.78 31.1314 145.363 29.3599 144.814 28.052C144.296 26.8182 143.684 26.0488 143.07 25.6454L142.946 25.57C142.294 25.1934 141.288 25.015 139.88 25.1918C138.481 25.3675 136.748 25.8867 134.709 26.8213C130.885 28.5733 126.057 31.7511 120.442 36.6993L119.309 37.7135C109.86 46.2826 100.014 58.0576 90.73 71.7981C93.8141 71.7006 96.9087 71.6492 100 71.6492C124.719 71.6492 149.623 74.7661 168.371 80.8825C177.742 83.9396 185.62 87.7604 191.169 92.3518C196.724 96.9489 200 102.37 200 108.594C200 112.645 198.564 117.499 193.829 122.39C189.111 127.264 181.136 132.156 168.086 136.376L168.087 136.377C164.497 137.54 160.654 135.665 159.326 132.177L159.206 131.834C158.008 128.125 160.042 124.146 163.748 122.947L165.163 122.479C172.147 120.111 177.737 117.384 181.417 114.573L181.962 114.146C183.191 113.152 184.141 112.183 184.8 111.277C185.559 110.233 185.892 109.327 185.892 108.594C185.892 107.84 185.543 106.879 184.687 105.748C183.835 104.623 182.52 103.38 180.691 102.08C177.263 99.6422 172.099 97.0474 165.009 94.6565L163.566 94.1812C146.711 88.7615 124.136 85.7652 100 85.7652C93.7185 85.7652 87.5416 85.9716 81.5423 86.3678C81.356 86.6833 81.1703 86.9995 80.985 87.3163L80.2435 88.5921C78.0477 92.3991 75.9627 96.2112 73.9982 100.006C75.9629 103.799 78.0473 107.612 80.2435 111.419L81.3807 113.371C93.1792 133.458 106.6 150.771 119.309 162.297L120.428 163.298C126 168.21 131.186 171.725 135.485 173.532H135.484C137.233 174.266 138.778 174.694 140.06 174.832C141.351 174.971 142.308 174.808 142.946 174.439L143.089 174.351C143.798 173.883 144.402 173.043 144.881 171.836C145.388 170.556 145.725 168.939 145.916 167.115C146.273 163.695 146.104 159.654 145.655 155.984L145.561 155.256C143.863 142.604 138.522 126.221 130.499 109.129V109.128C128.843 105.6 130.358 101.396 133.883 99.739L134.215 99.593C137.669 98.1789 141.661 99.7099 143.266 103.127L144.076 104.866C152.337 122.787 157.683 139.527 159.542 153.377L159.718 154.77C160.508 161.445 160.416 167.278 159.419 172.12L159.314 172.617C157.561 180.53 153.543 184.514 150.31 186.479L150 186.663C147.657 188.017 144.675 189 140.97 189C133.815 189 124.08 185.342 111.102 173.888L109.835 172.755C95.6289 159.87 80.7867 140.59 68.0272 118.476V118.477C67.5078 117.578 66.9969 116.676 66.4904 115.776C61.6853 126.836 58.0867 137.431 55.9539 146.933L55.7443 147.885C54.0364 155.798 53.4835 162.582 54.1095 167.518L54.2065 168.209C54.4498 169.784 54.8139 171.103 55.2702 172.135C55.7956 173.323 56.4157 174.071 57.0539 174.439L57.1792 174.507C57.8279 174.834 58.7884 174.98 60.1001 174.817C61.4909 174.645 63.2138 174.133 65.2415 173.208C69.2956 171.36 74.4851 167.905 80.5471 162.426L80.8234 162.189C83.7158 159.83 87.9804 160.131 90.5106 162.933L90.7467 163.208C93.0277 166.009 92.8199 170.097 90.2657 172.651L90.0032 172.901C76.8921 184.75 67.0163 188.749 59.7259 188.987L59.0285 188.999C55.5543 188.999 52.7172 188.135 50.4471 186.912L50.0005 186.663C46.4815 184.63 42.9905 180.943 41.1292 174.362C39.2743 167.803 39.0442 158.397 41.9568 144.904L42.2399 143.621C45.2336 130.393 50.7608 115.383 58.2224 100.006C56.5726 96.6038 55.0157 93.2209 53.5619 89.8718C47.7847 90.9893 42.3783 92.3229 37.4453 93.8598L36.4344 94.1803C28.5977 96.7005 22.9655 99.4788 19.3089 102.079C17.48 103.379 16.1642 104.622 15.3125 105.747C14.4557 106.878 14.1067 107.839 14.1067 108.593Z" fill="black"/>
</svg>
