<?xml version="1.0" standalone="no"?><!DOCTYPE svg PUBLIC "-//W3C//DTD SVG 1.1//EN" "http://www.w3.org/Graphics/SVG/1.1/DTD/svg11.dtd"><svg t="1764320249450" class="icon" viewBox="0 0 1024 1024" version="1.1" xmlns="http://www.w3.org/2000/svg" p-id="5030" xmlns:xlink="http://www.w3.org/1999/xlink" width="200" height="200"><path d="M879.498 829.783L561.715 512l317.773-317.773a15.36 15.36 0 0 0 0-21.724l-28.964-28.964a15.36 15.36 0 0 0-21.724 0L511.032 461.312 193.26 143.544a15.36 15.36 0 0 0-21.725 0l-28.963 28.964a15.36 15.36 0 0 0 0 21.724L460.344 512 142.566 829.778a15.36 15.36 0 0 0 0 21.724l28.964 28.964a15.36 15.36 0 0 0 21.724 0l317.778-317.778 317.783 317.783a15.36 15.36 0 0 0 21.725 0l28.963-28.964a15.36 15.36 0 0 0-0.005-21.724z" p-id="5031"></path></svg>