<?xml version="1.0" standalone="no"?><!DOCTYPE svg PUBLIC "-//W3C//DTD SVG 1.1//EN" "http://www.w3.org/Graphics/SVG/1.1/DTD/svg11.dtd"><svg t="1747274701223" class="icon" viewBox="0 0 1024 1024" version="1.1" xmlns="http://www.w3.org/2000/svg" p-id="3007" xmlns:xlink="http://www.w3.org/1999/xlink" width="200" height="200"><path fill="currentColor" d="M836.66944 35.8912A40.96 40.96 0 0 1 875.52 76.8v887.46496l-0.05632 2.10944a40.96 40.96 0 0 1-38.79424 38.79936l-2.10944 0.0512H189.44l-2.10944-0.0512a40.96 40.96 0 0 1-38.79424-38.79936l-0.05632-2.10944V76.8a40.96 40.96 0 0 1 38.85056-40.9088L189.44 35.84h645.12l2.10944 0.0512zM215.04 938.67008h166.0928V314.30144a40.96 40.96 0 0 1 38.85056-40.9088l2.10944-0.0512H808.96V102.4H215.04v836.26496z m232.6528-4.84352H808.96v-593.92H447.6928v593.92z" p-id="3008"></path><path fill="currentColor" d="M716.8 634.88c0 33.93024-27.50976 61.44-61.44 61.44s-61.44-27.50976-61.44-61.44 27.50976-61.44 61.44-61.44 61.44 27.50976 61.44 61.44z" p-id="3009"></path></svg>