<?xml version="1.0" standalone="no"?><!DOCTYPE svg PUBLIC "-//W3C//DTD SVG 1.1//EN" "http://www.w3.org/Graphics/SVG/1.1/DTD/svg11.dtd"><svg t="1764307406892" class="icon" viewBox="0 0 1024 1024" version="1.1" xmlns="http://www.w3.org/2000/svg" p-id="5047" xmlns:xlink="http://www.w3.org/1999/xlink" width="200" height="200"><path d="M378.52501333 851.84056889a84.97834667 84.97834667 0 1 0 0 169.88387556 84.97834667 84.97834667 0 0 0 0-169.88387556z m0-424.81891556a84.97834667 84.97834667 0 1 0 0 169.95669334 84.97834667 84.97834667 0 0 0 0-169.95669334z m0-424.74609778a84.97834667 84.97834667 0 1 0 0 169.88387556 84.97834667 84.97834667 0 0 0 0-169.88387556z m339.76775112 849.56501334a84.97834667 84.97834667 0 1 0 0 169.88387556 84.97834667 84.97834667 0 0 0 0-169.88387556z m0-424.81891556a84.97834667 84.97834667 0 1 0 0 169.95669334 84.97834667 84.97834667 0 0 0 0-169.95669334z m0-424.74609778a84.97834667 84.97834667 0 1 0 0 169.88387556 84.97834667 84.97834667 0 0 0 0-169.88387556z" p-id="5048"></path></svg>