<svg width="200" height="200" viewBox="0 0 200 200" fill="none" xmlns="http://www.w3.org/2000/svg">
<path d="M182.353 20C192.085 20 200 27.4233 200 36.5508V135.858C200 144.984 192.085 152.41 182.353 152.41H130.101L139.479 170H155C157.761 170 160 172.239 160 175C160 177.761 157.761 180 155 180H45C42.2386 180 40 177.761 40 175C40 172.239 42.2386 170 45 170H60.5156L69.8926 152.41H17.6475C7.91532 152.41 0 144.986 0 135.858V36.5508C0.000269042 27.4233 7.91548 20 17.6475 20H182.353ZM74.2236 168.963H125.776L116.953 152.412H83.0469L74.2236 168.963ZM17.6475 31.0352C14.4043 31.0352 11.7658 33.5091 11.7656 36.5508V135.858C11.7656 138.9 14.4042 141.375 17.6475 141.375H182.353C185.596 141.375 188.234 138.898 188.234 135.858V36.5508C188.234 33.5091 185.596 31.0352 182.353 31.0352H17.6475ZM97.3994 41.7129C99.1492 39.9631 101.906 39.9624 103.656 41.7119C105.81 43.8657 108.933 45.6056 112.524 46.9873C116.099 48.3624 120.032 49.3442 123.712 50.04C127.387 50.7349 130.775 51.1385 133.246 51.3682C134.48 51.4829 135.483 51.5534 136.174 51.5957C136.519 51.6168 136.787 51.6311 136.967 51.6396C137.056 51.6439 137.124 51.6466 137.169 51.6484C137.191 51.6494 137.208 51.65 137.219 51.6504C137.224 51.6506 137.227 51.6513 137.229 51.6514H137.234C139.621 51.7399 141.475 53.6914 141.475 56.0625V90.9404C141.464 96.5004 140.036 101.966 137.324 106.82C134.613 111.674 130.707 115.756 125.979 118.68L125.978 118.681L102.81 132.962L102.811 132.963C102.057 133.434 101.242 133.6 100.5 133.6C99.7581 133.6 98.9432 133.434 98.1895 132.963V132.962L75.0225 118.681V118.68C65.4346 112.817 59.5255 102.176 59.5254 90.9941V56.0625C59.5254 53.6914 61.3788 51.7399 63.7656 51.6514L63.7949 51.6504H63.8252C63.8634 51.6485 70.1146 51.3478 77.498 49.9141C81.1914 49.1969 85.1232 48.2047 88.6758 46.8438C92.2458 45.4761 95.3186 43.7793 97.3994 41.7129ZM99.208 131.704C99.2661 131.734 99.3252 131.761 99.3848 131.786C99.2661 131.736 99.1496 131.677 99.0371 131.606L99.208 131.704ZM100.49 50.5781C95.5333 54.0777 88.9846 56.3226 82.9219 57.7734C77.2608 59.1281 71.8854 59.8206 68.3496 60.166V90.9326L68.3643 91.6895C68.4969 95.4728 69.5289 99.1742 71.3789 102.485C73.3523 106.017 76.1924 108.989 79.6309 111.121H79.6299L100.501 123.989L121.375 111.174H121.376C128.325 106.91 132.65 99.1584 132.65 90.9941V60.2334C129.117 59.9145 123.767 59.2551 118.121 57.9072C112.057 56.4596 105.497 54.1852 100.49 50.5781ZM93.7881 67.2266C96.4654 65.9567 99.4481 65.4726 102.39 65.8301C105.331 66.1877 108.112 67.3726 110.407 69.2471C112.702 71.1215 114.418 73.609 115.356 76.4199C116.294 79.2308 116.416 82.2499 115.707 85.127C114.998 88.004 113.487 90.6212 111.35 92.6738C109.53 94.421 107.32 95.6963 104.912 96.4033V109.5C104.912 111.959 102.959 113.912 100.5 113.912C98.0414 113.912 96.0879 111.959 96.0879 109.5V96.4053C93.0664 95.5182 90.3715 93.7375 88.3672 91.2822C86.084 88.4853 84.8372 84.9856 84.8379 81.375C84.8385 78.4117 85.6795 75.5092 87.2637 73.0049C88.848 70.5005 91.1106 68.4965 93.7881 67.2266ZM61.1406 91.9814C61.1428 92.0466 61.1459 92.1117 61.1484 92.1768C61.1394 91.9489 61.1327 91.7207 61.1289 91.4922L61.1406 91.9814ZM110.54 91.2227L110.595 91.1689C110.62 91.1426 110.644 91.1144 110.669 91.0879C110.626 91.1328 110.584 91.1782 110.54 91.2227ZM110.871 90.873C110.892 90.8503 110.914 90.8286 110.935 90.8057C110.951 90.7873 110.967 90.7684 110.983 90.75C110.946 90.7914 110.909 90.8321 110.871 90.873ZM111.547 90.0781C111.555 90.0678 111.564 90.0582 111.572 90.0479C111.585 90.0313 111.597 90.0136 111.609 89.9971C111.588 90.024 111.568 90.0513 111.547 90.0781ZM100.5 74.5371C96.7149 74.5371 93.6621 77.5899 93.6621 81.375C93.6621 85.1601 96.7149 88.2129 100.5 88.2129C104.285 88.2129 107.338 85.1601 107.338 81.375C107.338 77.5899 104.285 74.5371 100.5 74.5371Z" fill="black"/>
</svg>
