<?xml version="1.0" standalone="no"?><!DOCTYPE svg PUBLIC "-//W3C//DTD SVG 1.1//EN" "http://www.w3.org/Graphics/SVG/1.1/DTD/svg11.dtd"><svg t="1749432341299" class="icon" viewBox="0 0 1024 1024" version="1.1" xmlns="http://www.w3.org/2000/svg" p-id="2819" xmlns:xlink="http://www.w3.org/1999/xlink" width="200" height="200"><path d="M207.258 512.036c0 50.841-41.283 92.124-92.16 92.124-50.898 0-92.16-41.283-92.16-92.124 0-50.934 41.267-92.196 92.16-92.196 50.877 0 92.16 41.262 92.16 92.196z m793.804 0c0 50.841-41.277 92.124-92.16 92.124-50.877 0-92.16-41.283-92.16-92.124 0-50.934 41.283-92.196 92.16-92.196 50.883 0 92.16 41.262 92.16 92.196z m-396.902 0c0 50.847-41.283 92.124-92.16 92.124-50.883 0-92.16-41.283-92.16-92.124 0-50.934 41.283-92.196 92.16-92.196s92.16 41.262 92.16 92.196z" p-id="2820"></path></svg>