<svg width="200" height="200" viewBox="0 0 200 200" fill="currentColor" xmlns="http://www.w3.org/2000/svg">
<path fill-rule="evenodd" clip-rule="evenodd" d="M28.3672 175.056H99.6309C103.501 175.056 106.648 178.203 106.648 182.073C106.648 185.943 103.524 189.066 99.6542 189.066H28.3672C18.7861 189.066 11 180.674 11 170.37V24.6959C11 14.3922 18.7861 6 28.3672 6H153.411C162.992 6 170.778 14.3922 170.778 24.6959V101.904C170.778 105.774 167.654 108.898 163.784 108.898C159.915 108.898 156.791 105.774 156.791 101.904V24.6959C156.791 21.9218 155.019 19.987 153.411 19.987H28.3672C26.782 19.987 24.987 21.9218 24.987 24.6959V170.347C24.987 173.121 26.7587 175.056 28.3672 175.056ZM48.6254 49.8202H133.153C137 49.8202 140.147 52.944 140.147 56.8137C140.147 60.6834 137.023 63.8072 133.153 63.8072H48.6254C44.7557 63.8072 41.6319 60.6834 41.6319 56.8137C41.6319 52.944 44.7557 49.8202 48.6254 49.8202ZM140.146 92.626C140.146 88.7563 137.022 85.6326 133.153 85.6326H48.6246C44.7549 85.6326 41.6311 88.7563 41.6311 92.626C41.6311 96.4958 44.7549 99.6195 48.6246 99.6195H133.153C136.999 99.6195 140.146 96.4958 140.146 92.626ZM43.4265 128.45C43.4265 124.58 46.5503 121.457 50.42 121.457H88.4646C92.3343 121.457 95.4581 124.58 95.4581 128.45C95.4581 132.32 92.3343 135.444 88.4646 135.444H50.42C46.5503 135.444 43.4265 132.32 43.4265 128.45ZM181.269 153.848C172.527 147.087 160.638 147.157 152.036 153.195L141.15 144.78L148.05 135.828C150.404 132.774 149.845 128.368 146.791 126.014C143.737 123.659 139.331 124.219 136.977 127.273L130.077 136.224L121.172 129.347L128.072 120.419C130.426 117.365 129.867 112.959 126.813 110.605C123.759 108.25 119.353 108.81 116.999 111.864L101.543 131.865L143.341 164.152C139.331 174.129 142.222 185.971 151.15 192.871C155.626 196.322 160.918 198 166.186 198C173.576 198 180.873 194.713 185.722 188.419C194.02 177.649 192.039 162.147 181.269 153.848ZM167.561 183.915C170.382 183.565 172.9 182.12 174.648 179.858C178.238 175.196 177.375 168.506 172.736 164.869C170.848 163.424 168.587 162.654 166.232 162.654C165.789 162.654 165.323 162.678 164.857 162.748C162.036 163.097 159.519 164.543 157.77 166.804C154.157 171.466 155.02 178.18 159.682 181.77C161.943 183.518 164.74 184.288 167.561 183.915Z" fill="black"/>
</svg>
