<svg width="200" height="200" viewBox="0 0 200 200" fill="currentColor" xmlns="http://www.w3.org/2000/svg">
<path d="M42.1416 36.2432C56.1312 14.0454 85.5008 7.28566 107.612 21.337C129.718 35.3853 136.446 64.7673 122.457 87.0733L122.458 87.0743C118.894 92.8005 114.068 97.7452 108.442 101.447C138.071 113.052 159.098 143.654 159.098 179.558C159.098 183.121 156.234 186 152.68 186H11.918C8.36395 186 5.50014 183.121 5.5 179.558C5.50004 143.655 26.5258 112.947 56.1572 101.442C34.7134 87.1902 28.3267 58.1641 42.1416 36.2432ZM129.325 19.6671C152.324 19.6671 170.933 38.3578 170.934 61.4473C170.934 75.1108 164.274 87.951 153.16 95.7423C177.458 107.017 194.5 135.076 194.5 167.567C194.5 171.13 191.636 174.009 188.082 174.009H170.434C166.88 174.009 164.016 171.13 164.016 167.567C164.016 164.003 166.88 161.123 170.434 161.123H181.412C178.789 128.34 156.205 103.121 129.325 103.121C125.771 103.121 122.907 100.243 122.907 96.6788C122.907 93.4158 125.789 90.5549 129.325 90.5548C145.217 90.5548 158.204 77.6206 158.204 61.5538C158.204 45.4858 145.321 32.5528 129.325 32.5528C125.771 32.5527 122.907 29.674 122.907 26.1104C122.907 22.5467 125.771 19.6672 129.325 19.6671ZM82.2988 109.276C49.0536 109.277 21.4472 137.195 18.4834 173.114H146.115C143.152 137.195 115.649 109.276 82.2988 109.276ZM89.3115 125.804L95.0068 159.704L83.9951 169.5L72.2363 159.704L78.6299 125.804L70 114.5L76.7529 115.96H90.2471L97 114.5L89.3115 125.804ZM82.2959 26.8223C63.1342 26.718 47.6085 42.4063 47.6084 61.6602C47.6086 80.9116 63.1325 96.497 82.2988 96.4972C101.465 96.4972 116.989 80.9117 116.989 61.6602C116.989 42.4086 101.465 26.8223 82.2988 26.8223H82.2959Z" fill="black"/>
</svg>
