<svg viewBox="0 0 200 200" focusable="false" class="" data-icon="share-help" fill="currentColor" aria-hidden="true"><path d="M90.3 134.7h20v20h-20zM132 76.2c0-17.7-14.3-32-32-32s-32 14.3-32 32h12c0-11 9-20 20-20s20 9 20 20c0 10.9-8.8 19.8-19.6 20h-8.5V116h20v-10.1A32.11 32.11 0 00132 76.2z"></path><path d="M100.1 196.2c-12.3 0-24.7-2.4-36.4-7.3-23.6-9.7-42-28.1-51.8-51.6s-9.8-49.5-.1-73.1 28.1-42 51.6-51.8c23.6-9.8 49.6-9.8 73.2-.1s42 28.1 51.8 51.6c9.8 23.6 9.8 49.5.1 73.1s-28.1 42-51.6 51.8a96.71 96.71 0 01-36.8 7.4zm0-180.1c-11 0-22 2.2-32.4 6.5C46.8 31.2 30.6 47.5 22 68.4s-8.6 43.8.1 64.7 24.9 37.1 45.8 45.7a83.9 83.9 0 0064.7-.1 84.11 84.11 0 0045.7-45.8 83.9 83.9 0 00-.1-64.7 84.11 84.11 0 00-45.8-45.7 84.56 84.56 0 00-32.3-6.4z"></path></svg>