<svg width="200" height="200" viewBox="0 0 200 200" fill="currentColor" xmlns="http://www.w3.org/2000/svg">
<path fill-rule="evenodd" clip-rule="evenodd" d="M55.1818 102.311C60.2238 102.311 65.2659 101.19 70.0278 98.6694C73.3891 96.9887 74.7897 92.7871 73.109 89.1456C71.4283 85.7843 67.2266 84.3837 63.5852 86.0644C61.0642 87.4649 58.2631 88.0252 55.1818 88.0252C45.0978 88.0252 36.9745 79.9019 36.9745 69.8179C36.9745 59.7339 45.0978 51.6106 55.1818 51.6106C56.3023 51.6106 57.7028 51.6106 58.8233 51.8907C60.504 52.1708 62.1846 51.8907 63.5852 51.0504C62.4647 54.4117 61.9045 58.0532 61.9045 61.9748C61.9045 82.703 78.7112 99.2296 99.1594 99.2296C119.608 99.2296 136.694 82.703 136.694 61.9748C136.694 57.7731 135.854 53.8515 134.734 49.93C136.414 51.6106 138.655 52.1708 141.176 51.8907C142.297 51.6106 143.697 51.6106 144.818 51.6106C154.902 51.6106 163.025 59.7339 163.025 69.8179C163.025 79.9019 154.902 88.0252 144.818 88.0252C141.736 88.0252 138.935 87.4649 136.414 86.0644C133.053 84.3837 128.851 85.7843 126.891 89.1456C125.21 92.507 126.61 96.7086 129.972 98.6694C134.454 100.91 139.496 102.311 144.818 102.311C162.745 102.311 177.031 87.7451 177.031 70.098C177.031 52.451 162.465 37.8851 144.818 37.8851C142.577 37.8851 140.336 38.1653 138.375 38.4454C135.014 39.0056 132.773 42.0868 132.773 45.4482C126.61 33.4034 114.005 25 99.4395 25C85.714 25 73.6692 32.563 67.2266 43.7675C66.6664 41.2465 64.7056 39.2857 61.9045 38.7255C59.6636 38.1653 57.7028 38.1653 55.4619 38.1653C37.5348 38.1653 23.2491 52.7311 23.2491 70.3781C23.2491 88.0252 37.2547 102.311 55.1818 102.311ZM99.1595 38.7257C112.045 38.7257 122.409 49.0898 122.409 61.9749C122.409 74.8601 112.045 85.2242 99.1595 85.2242C86.2743 85.2242 75.9102 74.8601 75.9102 61.9749C75.9102 49.0898 86.2743 38.7257 99.1595 38.7257ZM137.815 103.151C140.056 102.871 142.297 102.871 144.538 102.871C175.07 102.871 199.72 127.521 200 157.773C200 161.695 196.919 164.776 192.997 164.776C189.076 164.776 185.994 161.695 185.994 157.773C185.994 135.084 167.507 116.597 144.818 116.597C143.137 116.597 141.457 116.597 139.776 116.877C154.622 128.642 164.146 146.849 164.146 167.297C164.146 171.219 161.064 174.3 157.143 174.3C153.221 174.3 150.14 171.219 150.14 167.297C150.14 139.286 127.451 116.597 99.4398 116.597C71.4286 116.597 48.7395 139.286 48.7395 167.297C48.7395 171.219 45.6583 174.3 41.7367 174.3C37.8151 174.3 34.7339 171.219 34.7339 167.297C34.7339 146.849 44.2577 128.642 59.1036 116.877C57.7031 116.597 56.5826 116.597 55.1821 116.597C32.493 116.597 14.0056 135.084 14.0056 157.773C14.0056 161.695 10.9244 164.776 7.0028 164.776C3.08123 164.776 0 161.695 0 157.773C0 127.521 24.6499 102.871 55.1821 102.871C57.423 102.871 59.6639 102.871 61.6246 103.151C65.5462 103.712 68.3473 107.073 67.7871 110.995C77.0308 105.952 87.6751 102.871 99.1597 102.871C111.204 102.871 122.409 106.233 131.933 111.835C131.653 111.555 131.653 111.275 131.653 110.995C131.373 107.073 133.894 103.712 137.815 103.151Z" fill="black"/>
</svg>
